<?xml version="1.0" standalone="no"?>
<!DOCTYPE svg PUBLIC "-//W3C//DTD SVG 20010904//EN"
 "http://www.w3.org/TR/2001/REC-SVG-20010904/DTD/svg10.dtd">
<svg version="1.0" xmlns="http://www.w3.org/2000/svg"
 width="500.000000pt" height="267.000000pt" viewBox="0 0 500.000000 267.000000"
 preserveAspectRatio="xMidYMid meet">

<g transform="translate(0.000000,267.000000) scale(0.100000,-0.100000)"
fill="#000000" stroke="none">
<path d="M2146 1992 c-3 -5 -4 -50 -3 -101 2 -65 -1 -95 -10 -102 -7 -7 -50
-10 -108 -7 l-96 3 3 -55 3 -55 100 -3 c62 -2 102 -7 107 -15 4 -6 7 -140 8
-296 0 -157 4 -289 9 -294 5 -5 28 -7 52 -5 l44 3 3 303 2 302 95 0 95 0 0 55
0 54 -92 3 -93 3 -5 105 -5 105 -52 3 c-28 2 -54 -1 -57 -6z"/>
<path d="M3326 1781 c-10 -11 -19 -35 -19 -53 -2 -27 2 -34 21 -36 14 -2 29 5
40 18 l17 21 45 -20 c58 -26 66 -26 95 4 33 32 35 85 3 85 -12 0 -31 -9 -42
-19 -21 -20 -22 -20 -65 0 -54 24 -73 24 -95 0z"/>
<path d="M1097 1613 c-4 -3 -7 -123 -7 -265 l0 -258 210 0 210 0 0 50 0 50
-145 0 -146 0 3 58 3 57 125 5 c122 5 125 6 128 29 2 12 1 34 -2 47 -6 24 -8
24 -131 24 l-125 0 0 55 0 55 140 0 140 0 0 50 0 50 -198 0 c-109 0 -202 -3
-205 -7z"/>
<path d="M1617 1613 c-4 -3 -7 -123 -7 -265 l0 -259 63 3 62 3 1 69 c2 76 9
86 65 86 47 0 60 -12 100 -92 l34 -68 67 0 c38 0 68 2 68 5 0 2 -23 41 -52 86
l-52 82 31 26 c45 38 63 81 63 149 0 89 -50 153 -136 172 -45 11 -297 13 -307
3z m287 -104 c30 -14 50 -65 40 -103 -12 -47 -48 -66 -129 -66 -79 0 -83 2
-79 60 1 19 3 54 3 78 l1 42 70 0 c38 0 80 -5 94 -11z"/>
<path d="M2357 1613 c-4 -3 -7 -123 -7 -265 l0 -258 60 0 60 0 0 265 0 265
-53 0 c-30 0 -57 -3 -60 -7z"/>
<path d="M2600 1356 l0 -266 128 0 c200 0 284 37 339 147 49 102 30 238 -43
304 -74 66 -96 73 -266 77 l-158 4 0 -266z m277 153 c68 -26 110 -105 98 -185
-5 -35 -16 -57 -45 -88 l-39 -41 -85 -4 -86 -3 0 166 0 166 64 0 c36 0 77 -5
93 -11z"/>
<path d="M3335 1607 c-124 -49 -177 -124 -176 -252 0 -92 22 -145 78 -196 60
-54 116 -72 210 -67 89 4 134 22 189 75 54 53 74 104 74 193 0 63 -5 83 -28
125 -30 55 -97 107 -160 125 -49 13 -149 12 -187 -3z m196 -123 c43 -41 59
-76 59 -129 0 -58 -28 -113 -74 -144 -29 -19 -45 -23 -86 -19 -132 13 -199
148 -127 257 35 53 76 72 145 68 41 -3 59 -10 83 -33z"/>
<path d="M3807 1613 c-4 -3 -7 -123 -7 -265 l0 -258 211 0 210 0 -3 48 -3 47
-145 5 -145 5 -3 34 c-2 19 -1 44 2 57 6 24 8 24 131 24 l125 0 0 51 0 51
-119 -3 c-79 -3 -124 0 -131 7 -6 6 -10 31 -8 55 l3 44 143 3 142 3 0 49 0 50
-198 0 c-109 0 -202 -3 -205 -7z"/>
<path d="M4403 1600 c-54 -28 -83 -74 -83 -131 0 -83 48 -124 192 -164 93 -25
114 -79 44 -113 -22 -11 -35 -11 -84 3 -31 9 -76 27 -98 41 l-42 24 -17 -26
c-9 -14 -17 -37 -18 -52 -4 -61 196 -114 312 -82 88 24 137 106 112 189 -16
54 -49 79 -148 113 -48 16 -96 36 -105 45 -20 18 -24 58 -6 69 21 14 104 5
156 -15 29 -12 57 -21 61 -21 8 0 41 71 41 88 0 5 -17 17 -37 27 -27 13 -67
20 -138 22 -87 4 -105 1 -142 -17z"/>
</g>
</svg>
